<?xml version="1.0" encoding="utf-8"?>
<!-- Generator: Adobe Illustrator 19.0.0, SVG Export Plug-In . SVG Version: 6.00 Build 0)  -->
<svg version="1.1" id="Layer_1" xmlns="http://www.w3.org/2000/svg" xmlns:xlink="http://www.w3.org/1999/xlink" x="0px" y="0px"
	 viewBox="0 0 512 512" style="enable-background:new 0 0 512 512;" xml:space="preserve">
<g id="XMLID_10_" fill="#ccc">
	<path id="XMLID_45_" d="M27.1,247.2c0-116.3,92-216.7,203.6-225.5C362,11.4,464.2,103.8,479.1,219.3c5.4,42,0.1,83.3-18.8,121.6
		c-7.6,15.6-8,30.3-4.4,46.3c3.6,16.2,6.9,32.5,9.4,49c4.4,29.8-16.1,49-43.9,38.4c-20-7.6-41.4-16.3-61.1-17
		c-21.5-0.8-41.3,6.9-64.5,11.9C154.6,500,27,391.7,27.1,247.2z M50.6,248c-1.7,53.2,16.1,99.8,52.3,137.9
		c61.9,65.2,137.4,81.8,221.8,54.1c19.1-6.3,36.6-8.6,55.4-1.8c15,5.4,30.6,9.4,45.9,14.2c13.3,4.2,18.1-1.1,16-14
		c-1.6-9.9-3.4-19.9-5.9-29.7c-7.5-30-8.2-58.3,7-87.6c16.5-31.9,17.3-68,12.1-103C438.7,107.3,344.7,35.2,229,46.1
		C126.4,55.8,47.2,147.4,50.6,248z"/>
</g>
</svg>
