<?xml version="1.0" encoding="utf-8"?>
<!-- Generator: Adobe Illustrator 19.0.0, SVG Export Plug-In . SVG Version: 6.00 Build 0)  -->
<svg version="1.1" id="Layer_1" xmlns="http://www.w3.org/2000/svg" xmlns:xlink="http://www.w3.org/1999/xlink" x="0px" y="0px"
	 viewBox="0 0 512 512" style="enable-background:new 0 0 512 512;" xml:space="preserve">
<g id="XMLID_5_" fill="#ccc">
	<path id="XMLID_60_" d="M0,269c0-8.7,0-17.3,0-26c0.2-1.1,0.5-2.2,0.6-3.3c1-18.5,4-36.6,9.3-54.3c20.9-69.8,63.5-121.7,127.1-156
		C164.6,14.5,194,5.6,225,2c5.9-0.7,11.8-1.3,17.8-2c8.8,0,17.6,0,26.4,0c1,0.2,1.9,0.5,2.9,0.6c13.6,1.9,27.5,2.7,40.8,5.9
		c78.6,19.1,136.7,65,173.4,137.9c12.8,25.3,20.4,52.4,23.7,80.7c0.7,6,1.3,11.9,2,17.9c0,8.7,0,17.3,0,26c-0.2,1.1-0.5,2.2-0.6,3.3
		c-1,18.5-4,36.6-9.3,54.3c-21.3,70.9-64.8,123.3-129.8,157.4c-26.7,14-55.3,22.5-85.2,26c-5.9,0.7-11.8,1.3-17.8,2
		c-8.8,0-17.6,0-26.4,0c-1-0.2-2-0.5-2.9-0.6c-13.6-1.9-27.5-2.7-40.8-5.9c-78.8-19.1-136.9-65.2-173.6-138.2
		C12.8,342,5.2,315.1,2,286.9C1.3,281,0.6,275,0,269z M42.2,256c1.3,12.6,1.9,25.3,4.2,37.6c8.8,48.5,31.5,89.5,68.5,121.7
		c51.5,45,111.6,61.6,178.5,50.5c49-8.1,90.5-31.4,123.1-69.4c48.3-56.2,64-121.3,46.3-193.3c-21.4-86.8-96.2-150.4-184.5-159.2
		c-24.8-2.5-49.3-0.7-73.6,5.2C110.5,72,43,158.1,42.2,256z"/>
	<path id="XMLID_48_" d="M344.1,174.8c-0.2,0.7-0.5,2.1-1,3.5c-12.7,34.9-25.5,69.8-37.9,104.8c-2.1,5.9-6.9,9.2-10.3,13.7
		c-5.2,6.7-12.9,8.5-20.2,11.1c-31.9,11.6-63.7,23.2-95.6,34.8c-0.7,0.3-1.5,0.8-2.2,0.7c-2.3-0.2-5.4,0.1-6.7-1.3
		c-1.3-1.3-1.5-4.7-0.9-6.7c3.6-10.7,7.5-21.3,11.4-31.9c8.9-24.4,18-48.7,26.5-73.3c2.1-6.2,6.7-9.9,10.4-14.6
		c5-6.4,12.4-8.4,19.4-11c32.5-11.8,64.9-23.6,97.4-35.4c1.2-0.4,2.5-0.8,3.7-1C342,168,344.3,170.3,344.1,174.8z"/>
</g>
</svg>
