<?xml version="1.0" encoding="utf-8"?>
<!-- Generator: Adobe Illustrator 19.0.0, SVG Export Plug-In . SVG Version: 6.00 Build 0)  -->
<svg version="1.1" id="Layer_1" xmlns="http://www.w3.org/2000/svg" xmlns:xlink="http://www.w3.org/1999/xlink" x="0px" y="0px"
	 viewBox="0 0 512 512" style="enable-background:new 0 0 512 512;" xml:space="preserve">
	 	<defs>
    	<linearGradient id="myGradient" gradientTransform="rotate(90)">
      		<stop offset="20%" stop-color="rgb(226, 42, 111)" />
      		<stop offset="80%" stop-color="rgb(254, 102, 102)" />
    	</linearGradient>
	</defs>
<g id="XMLID_8_" fill="url('#myGradient')">
	<path id="XMLID_56_" d="M328,465.3c-11.8-3.7-15.7-11.2-15.7-20.4c0-54.6,0-109.2,0-163.9c0-26.1,0.1-52.3-0.1-78.4
		c0-2.9,1.1-3.5,4.6-3.5c59.6,0.1,119.2,0.1,178.8,0c3.8,0,4.8,0.9,4.7,3.8c-0.1,50.4-0.1,100.7-0.1,151.1c0,20.8,0.4,41.7,0.5,62.5
		c0,10.3-0.1,20.5-0.7,30.8c-0.5,8.1-4.4,14.8-14.8,18.1c-1.8,0-3.7,0-5.5,0c-8.9,0-44.9-34.1-59.4-47c-4.6-4.1-9.2-8.2-14-12.4
		c-1,0.8-1.7,1.4-2.4,2c-20.4,17-37.7,36.1-60,51.7c-3,2.1-6.6,3.8-9.9,5.7C332.2,465.3,330.1,465.3,328,465.3z"/>
	<path id="XMLID_55_" d="M500.9,95.8c-163.2,0-326.5,0-489.7,0c0-16.1,0-32.2,0-48.2c163.2,0,326.5,0,489.7,0
		C500.9,63.7,500.9,79.8,500.9,95.8z"/>
	<path id="XMLID_54_" d="M11.1,217.4c78.9,0,157.7,0,236.6,0c0.7,0,1.4,0.1,2.5,0.2c0,1.2,0,2.2,0,3.3c0,13.6-0.1,27.3,0.1,40.9
		c0,3-0.6,3.9-3.4,3.9c-49.1-0.1-98.3-0.1-147.4-0.1c-29.4,0-58.9,0-88.3,0C11.1,249.5,11.1,233.4,11.1,217.4z"/>
	<path id="XMLID_53_" d="M11.1,386.5c3.3,0,6.5,0,9.8,0c75.2,0,150.3,0,225.5,0c1.2,0,2.3,0,3.9,0c0,1.3,0,2.4,0,3.5
		c0,13.7-0.1,27.5,0.1,41.2c0,2.7-0.6,3.6-3.1,3.6c-78.5-0.1-157-0.1-235.5-0.1c-0.2,0-0.4,0.1-0.5,0.1
		C11.1,418.6,11.1,402.6,11.1,386.5z"/>
</g>
</svg>
