<?xml version="1.0" encoding="utf-8"?>
<!-- Generator: Adobe Illustrator 19.0.0, SVG Export Plug-In . SVG Version: 6.00 Build 0)  -->
<svg version="1.1" id="Layer_1" xmlns="http://www.w3.org/2000/svg" xmlns:xlink="http://www.w3.org/1999/xlink" x="0px" y="0px"
	 viewBox="0 0 512 512" style="enable-background:new 0 0 512 512;" xml:space="preserve">
<g id="XMLID_52_" fill="#ccc">
	<path id="XMLID_120_" d="M4.5,339.2c0-56.5,0-113,0-169.6c0.3-2.1,0.6-4.1,0.9-6.2c1.7-15.2,2.5-30.6,5.2-45.6
		c9.9-55.7,51-96.6,106.2-107.1c21.4-4.1,43.1-4.6,64.8-5c4-0.1,8.1-0.5,12.1-0.8c41.5,0,83,0,124.5,0c4.2,0.3,8.4,0.8,12.6,0.8
		c21.2,0.3,42.4,0.7,63.3,5.1c53.8,11.4,89.2,42.7,103.9,96.4c5.6,20.6,6.9,41.7,7.4,63c0.2,8.3,0.6,16.6,1,24.9
		c0,41.2,0,82.3,0,123.5c-0.3,4.9-0.8,9.7-0.9,14.6c-0.3,21.7-1.1,43.3-5.9,64.6c-13.1,57.5-53.8,95.8-112.3,103.9
		c-20.1,2.8-40.6,2.9-60.9,4.3c-2.4,0.2-4.8,0.5-7.2,0.8c-50,0-100,0-150,0c-2.7-0.3-5.5-0.6-8.2-0.9c-16-2-32.2-2.8-47.9-6.2
		c-40.7-8.7-71.4-31.4-90.3-68.9c-10.5-20.7-14.3-43.1-16.3-65.9C5.7,356.4,5.1,347.8,4.5,339.2z M460.9,193.3
		c-0.6-22.3-0.1-44.8-4.5-66.8c-6.6-32.7-24.1-56.1-56.6-66.9c-20.9-6.9-42.4-8.9-64.1-9.4c-29.4-0.7-58.8-0.6-88.1-0.7
		c-16.2-0.1-32.3,0.1-48.5,0.4c-24.1,0.3-48.3-0.1-72.3,4c-38,6.5-62,28.5-71.3,65.9c-4.9,19.6-6.4,39.6-6.5,59.7
		c-0.3,52.4-0.5,104.9,0,157.3c0.2,16.1,1.8,32.3,4.9,48.1c7.1,36.1,28.2,60.3,64.5,69.7c17.8,4.6,36.1,5.9,54.3,6.1
		c47.9,0.5,95.7,0.8,143.6,0.7c23.8-0.1,47.7-0.3,71.1-5.5c34.7-7.6,57.8-28.2,66.5-62.7c3.8-15.2,5.7-31.2,6.2-46.9
		C460.9,313.6,461.4,211.6,460.9,193.3z"/>
	<path id="XMLID_109_" d="M255.6,127.1c71.5,0.3,128.9,57.9,128.5,129c-0.4,71.6-57.9,128.6-129.3,128.2
		c-71.2-0.4-128.2-57.8-128-129C127.1,184.2,184.7,126.9,255.6,127.1z M338.9,255.8c0-46.5-37.2-83.6-83.7-83.4
		c-46.3,0.1-83.2,37.2-83.2,83.4c0,46.5,37.2,83.5,83.7,83.5C302,339.2,339,302.1,338.9,255.8z"/>
	<path id="XMLID_108_" d="M419.3,122c0,16.8-13.3,30-30.1,30c-16.6,0-29.9-13.6-29.9-30.3c0.1-16.5,13.3-29.6,29.9-29.6
		C406.2,92,419.3,105.1,419.3,122z"/>
</g>
</svg>
