<?xml version="1.0" encoding="utf-8"?>
<!-- Generator: Adobe Illustrator 19.0.0, SVG Export Plug-In . SVG Version: 6.00 Build 0)  -->
<svg version="1.1" id="Layer_1" xmlns="http://www.w3.org/2000/svg" xmlns:xlink="http://www.w3.org/1999/xlink" x="0px" y="0px"
	 viewBox="0 0 512 512" style="enable-background:new 0 0 512 512;" xml:space="preserve">
<g id="XMLID_11_" fill="#fff">
	<path id="XMLID_50_" d="M259.5,79.6c24.2-26,55.9-38.5,91.5-39.9c73.7-2.9,139.1,49.3,154.9,123.5c14.4,67.7-7.6,122.4-60.9,165.3
		c-56.3,45.3-112.7,90.4-168.7,136.1c-12.4,10.1-23.2,10.8-35.7,0.7c-60.9-49.4-122.6-97.6-182.7-147.9
		c-50.6-42.4-65.6-115.6-40-180.1c24.3-61,82.9-100.3,147.4-97.4c30.6,1.4,59.3,9.8,81.9,32.5c2.3,2.3,5.1,4.3,7.8,6.2
		C255.7,79,257,79,259.5,79.6z M257.8,118.2c-3.9-4.3-7.1-6.8-9-10.1C222.7,62.9,157.2,51.9,110.3,72
		c-89.1,38.1-114,165.5-32.7,232.5c56.2,46.3,113.5,91.3,170,137.4c8.2,6.7,13,6.7,21.2,0c54.1-44.5,108.2-89.2,163.3-132.5
		c72.3-56.8,73.9-161.8,3.1-219.8c-46.5-38.2-133.1-39.1-169.6,20C263.9,112.4,261.2,114.5,257.8,118.2z"/>
</g>
</svg>
