<svg version="1.1" id="Layer_1" xmlns="http://www.w3.org/2000/svg" xmlns:xlink="http://www.w3.org/1999/xlink" x="0px" y="0px"
	 viewBox="0 0 512 512" style="enable-background:new 0 0 512 512;" xml:space="preserve">
	<defs>
    	<linearGradient id="myGradient" gradientTransform="rotate(90)">
      		<stop offset="20%" stop-color="rgb(226, 42, 111)" />
      		<stop offset="80%" stop-color="rgb(254, 102, 102)" />
    	</linearGradient>
	</defs>
	<g id="XMLID_2_" fill="url('#myGradient')">
		<path id="XMLID_78_" d="M5.9,347.7c0-61.3,0-122.5,0-183.8c0.6-3.1,1.1-6.3,1.8-9.4C13.7,128,29.1,108.7,52.8,96
			c53.2-28.5,106.4-57.1,159.8-85.4c7.1-3.7,14.9-6.1,22.5-8.7c4-1.3,8.3-1.7,12.5-2.5c5.7,0,11.4,0,17.2,0c0.7,0.2,1.3,0.5,2,0.7
			c6.8,1.6,14,2.2,20.3,5c11.9,5.1,23.3,11.2,34.7,17.3c46.4,24.7,92.7,49.5,139,74.4c20.5,11,34.6,27.6,41.8,49.9
			c1.8,5.6,2.6,11.5,3.9,17.3c0,17.6,0,35.3,0,52.9c-0.2,0.2-0.4,0.3-0.5,0.5c-3.2,7.2-8.7,10.4-15.4,9c-7-1.5-10.5-6.3-10.6-14.3
			c0-13.8,0.1-27.6,0-41.5c0-6.2-1.1-12.2-3.5-18.1c-0.7,0.3-1.2,0.5-1.6,0.7c-40.4,21.7-80.8,43.5-121.2,65.2
			c-17.3,9.3-34.6,18.5-51.9,27.8c-5.6,3-10.9,6.6-15.4,11.7c63.5,34,126.6,67.8,190.3,101.9c0.9-4.1,2.2-7.6,2.5-11.2
			c0.5-8.7,0.6-17.4,0.8-26c0.2-7.1,5.6-12.5,12.8-12.7c6.9-0.2,10.8,3.8,13.7,9.4c0,9.5,0,19.1,0,28.6c-0.3,1.7-0.7,3.5-1,5.2
			c-5.2,28.2-20.6,48.9-45.7,62.4c-53.3,28.6-106.6,57.2-160.1,85.6c-7.2,3.8-15.1,6.2-22.8,8.9c-3.9,1.3-8.1,1.7-12.1,2.4
			c-5.7,0-11.4,0-17.2,0c-4.2-0.8-8.3-1.6-12.5-2.5c-11.8-2.6-22.1-8.4-32.6-14.1c-50.2-26.9-100.4-53.8-150.5-80.7
			c-21.4-11.5-35.8-28.7-42.8-52C7.7,358,7,352.8,5.9,347.7z M461.7,128.3c-5.4-3.5-9.9-6.9-14.7-9.6c-15.2-8.4-30.6-16.4-45.8-24.7
			c-2.7-1.5-4.5-1.2-7.1,0.2c-48.6,26.8-97.3,53.5-146,80.3c-59,32.4-118,64.8-177,97.2c-28.7,15.8-43.2,45.5-38,77.7
			c0.7,4.1,2.1,8.1,3.3,12.4C178.4,284,319.5,206.5,461.7,128.3z M385.8,86.1c-1.5-0.9-2.5-1.5-3.5-2c-19.7-10.6-39.4-21.1-59.1-31.7
			c-2.3-1.2-3.9-1.2-6.1,0c-29.9,16.5-59.8,32.9-89.7,49.3c-52,28.6-104,57.1-156,85.7c-20.7,11.4-34.3,28.5-37.8,52
			c-1.8,12.1-0.9,24.7-1.3,37.1c0,1,0.1,2,0.2,3.6C150.4,215.4,267.9,150.9,385.8,86.1z M463.3,381.8
			c-64.2-34.4-127.3-68.1-190.5-102c-2.6,6.5-3.3,13-3.3,19.7c0,60.5,0,121.1,0,181.6c0,1.2,0.1,2.5,0.2,4.6c6-2.5,11.5-4.4,16.7-7
			c10.5-5.3,20.8-11,31.2-16.6c43.2-23.1,86.4-46.2,129.5-69.4C452.5,389.7,457.4,385.8,463.3,381.8z M31.6,195.5
			c0.5,0.1,0.9,0.3,1.4,0.4c91.6-50.3,183.3-100.7,275.5-151.3c-7.5-4-14.4-7.8-21.3-11.4c-20.7-10.9-41.4-10.9-62.1,0
			c-14.2,7.5-28.3,15.2-42.4,22.7c-39.2,21-78.4,41.9-117.6,63c-15.9,8.5-27.3,21.3-30.8,39.1C31.9,170.1,32.4,182.9,31.6,195.5z
			M255.2,254.6c-1.5,0.7-2.6,1.3-3.7,1.9c-21.1,11.6-42.1,23.1-63.2,34.7C147.2,313.8,106,336.4,64.9,359
			c-6.8,3.8-10.5,9.5-10.4,17.4c0.1,7.5,4,12.7,10.5,16.2c10,5.3,19.9,10.6,29.9,16c1.6,0.9,2.9,0.9,4.5,0c47-25.8,94-51.7,141-77.4
			c2-1.1,2.6-2.4,2.6-4.5c-0.1-8.6,0-17.2,0-25.7c0-11.5,1.7-22.8,6.2-33.4C250.9,263.3,253,259.2,255.2,254.6z M242.6,342.7
			c-1.2,0.6-2,1-2.8,1.4c-33.2,18.2-66.5,36.5-99.7,54.7c-6.8,3.7-10.9,9.2-10.8,17.1c0.1,7.9,4.1,13.4,11,17
			c7.5,3.9,14.9,7.9,22.3,12c2,1.1,3.5,1,5.5-0.1c23.9-13.2,47.9-26.4,71.9-39.5c2.2-1.2,2.9-2.5,2.9-5c-0.1-18.1-0.1-36.2-0.1-54.3
			C242.9,345.1,242.7,344.1,242.6,342.7z M242.7,416.4c-13.1,7.4-26,13.7-38,21.6c-10.8,7.1-9.4,23.7,2,30.4
			c7.8,4.6,15.8,8.7,23.9,12.6c3.7,1.8,7.7,2.8,12,4.3C242.7,462.3,242.7,439.8,242.7,416.4z"/>
	</g>
</svg>
