<?xml version="1.0" encoding="utf-8"?>
<!-- Generator: Adobe Illustrator 19.0.0, SVG Export Plug-In . SVG Version: 6.00 Build 0)  -->
<svg version="1.1" id="Layer_1" xmlns="http://www.w3.org/2000/svg" xmlns:xlink="http://www.w3.org/1999/xlink" x="0px" y="0px"
	 viewBox="0 0 512 512" style="enable-background:new 0 0 512 512;" xml:space="preserve">
	<g id="XMLID_3_" fill="#ccc">
		<path id="XMLID_27_" d="M320.3,447.7c-2.4,42.2-33.3,62-59.4,63.7c-30.9,2-65.4-21.5-67.1-63.7c-1.7,0-3.4,0-5.1,0
			c-49.6,0-99.3-0.6-148.9,0.3c-24.5,0.4-41.5-24.2-29.7-47.8c19.2-38.1,37.9-76.5,56.7-114.8c1.2-2.5,1.9-5.5,2-8.3
			c0.3-31.1-0.3-62.3,0.6-93.4c1.2-39,14.4-74.2,37.8-105.3c29.5-39.1,68.5-64,116.9-72.4c58.4-10.1,110.8,4.4,155.8,43.2
			c34.8,30,55.5,68.3,63,113.4c1.9,11.4,2.3,23.2,2.5,34.8c0.4,26.6,0.1,53.3,0.2,79.9c0,2.6,0.7,5.5,1.8,7.9
			c19,38.7,38.1,77.3,57.1,116c8.9,18.1,0.6,38.8-17.8,44.8c-3.6,1.2-7.7,1.5-11.6,1.6c-49.8,0.1-99.6,0.1-149.4,0.1
			C324,447.7,322.3,447.7,320.3,447.7z M433.6,388.9c-0.8-1.6-1.4-2.9-2.1-4.1c-14.1-25.7-28.2-51.4-42.2-77.2
			c-1.2-2.2-1.9-4.9-1.9-7.4c-0.1-31.4,0.1-62.9-0.2-94.3c-0.1-12-0.1-24.2-1.9-36.1c-10.5-69.6-75.7-118.3-145.9-108.2
			c-51.4,7.4-85.8,37.3-104.6,85.3c-7.4,18.9-7.9,38.8-7.8,58.8c0.2,31.4,0.1,62.9,0,94.3c0,2.6-0.8,5.5-2,7.8
			c-14,25.8-28.2,51.5-42.3,77.2c-0.7,1.2-1.2,2.5-1.9,3.9C198.6,388.9,315.8,388.9,433.6,388.9z"/>
	</g>
</svg>
