<?xml version="1.0" encoding="utf-8"?>
<!-- Generator: Adobe Illustrator 19.0.0, SVG Export Plug-In . SVG Version: 6.00 Build 0)  -->
<svg version="1.1" id="Layer_1" xmlns="http://www.w3.org/2000/svg" xmlns:xlink="http://www.w3.org/1999/xlink" x="0px" y="0px"
	 viewBox="0 0 512 512" style="enable-background:new 0 0 512 512;" xml:space="preserve">
	 	<defs>
    	<linearGradient id="myGradient" gradientTransform="rotate(90)">
      		<stop offset="20%" stop-color="rgb(226, 42, 111)" />
      		<stop offset="80%" stop-color="rgb(254, 102, 102)" />
    	</linearGradient>
	</defs>
<g id="XMLID_7_" fill="url('#myGradient')">
<path id="XMLID_68_" d="M4,238.2c0-2,0-3.9,0-5.9c2.2-9.1,8.4-14.1,16.8-17.5c71.2-28.2,142.3-56.5,213.5-84.8
		c83.3-33.1,166.6-66.3,249.8-99.4c2.6,0,5.2,0,7.9,0c7.8,2.7,13.1,7.9,15.7,15.7c0,3,0,5.9,0,8.9c-0.3,0.4-0.7,0.7-0.8,1.2
		c-4.3,22.6-8.7,45.3-12.9,67.9c-10.3,54.1-20.5,108.2-30.8,162.4c-11,57.6-22.2,115.2-32.9,172.9c-2,10.6-6.4,18.3-16.9,21.7
		c-2.3,0-4.6,0-6.9,0c-4-2.1-8.3-3.7-12.1-6.2c-39.4-26.6-78.7-53.2-117.8-80.1c-3.8-2.6-6.1-2.4-9.7,0.2
		c-20.2,14.8-40.6,29.4-60.9,44c-14.3,10.3-29.2,4.9-33.7-12.1c-10.7-40.6-21.6-81.1-32.1-121.8c-1-3.9-2.9-5.6-6.4-6.9
		C96.3,284.2,59,269.8,21.5,255.7C12.8,252.4,6.5,247.4,4,238.2z M456.3,110c-0.3-0.1-0.7-0.3-1-0.4c-72.8,70-145.5,140-218.5,210.3
		c53.2,36.1,105.8,71.7,159,107.8C416,321.4,436.1,215.7,456.3,110z M184.6,317.6c3.3-4.2,6.1-8.7,9.8-12.2
		c66.8-64.4,133.7-128.7,200.6-193c1.4-1.4,3.1-2.6,4.6-3.9c-0.3-0.3-0.6-0.7-0.9-1c-106.3,42.3-212.5,84.6-319.6,127.2
		c2,0.8,3.1,1.3,4.1,1.7c25.6,9.8,51.2,19.7,76.9,29.4c8.2,3.1,13.2,8.5,15.3,17C178.2,294.7,181.6,306.4,184.6,317.6z M189.4,335.9
		c4.9,18.6,9.7,36.8,14.7,55.6c11.1-8,21.5-15.5,32.5-23.4C220.7,357.2,205.3,346.8,189.4,335.9z"/>
</g>
</svg>
