<?xml version="1.0" encoding="utf-8"?>
<!-- Generator: Adobe Illustrator 19.0.0, SVG Export Plug-In . SVG Version: 6.00 Build 0)  -->
<svg version="1.1" id="Layer_1" xmlns="http://www.w3.org/2000/svg" xmlns:xlink="http://www.w3.org/1999/xlink" x="0px" y="0px"
	 viewBox="0 0 512 512" style="enable-background:new 0 0 512 512;" xml:space="preserve">
<g id="XMLID_6_" fill="#ccc">
	<path id="XMLID_37_" d="M343.3,45.4c6.7,0,13.5,0,20.2,0c0.9,0.3,1.9,0.8,2.8,0.9c24.9,2.8,46.4,13,64.9,29.7
		c1.9,1.7,4.6,3.3,7,3.4c8.5,0.3,17.3,1.2,25.4-0.5c8.5-1.8,16.6-6,24.6-9.8c11.6-5.5,24,1.7,23.8,14.4c-0.1,5.3-0.6,10.8-1.8,16
		c-5.9,25.3-20,45.6-38.4,63.3c-2.7,2.6-3.5,5.1-3.7,8.7c-1,15.9-1.3,32.1-4.1,47.7c-13.6,77.5-51.6,140.7-114.5,188.3
		c-40.9,30.9-87.3,49-138.2,55.7c-8.3,1.1-16.6,2-25,3c-11.5,0-22.9,0-34.4,0c-1.5-0.3-2.9-0.8-4.4-0.9
		c-49.7-3.4-95.8-18.2-138.1-44.5c-8.3-5.1-11.2-11.9-8.5-19.9c2.7-7.9,8.6-11.6,18.2-10.7c33.3,3.3,65.3-1.6,96.1-15
		c1.5-0.7,3-1.5,5.1-2.5c-1.8-0.9-2.7-1.3-3.6-1.7c-28.3-13.5-48.3-34.6-60-63.8c-3.1-7.8-3.7-14.9,2.2-21.6c-1.6-1.5-2.9-2.7-4.2-4
		c-1.3-1.3-2.7-2.6-3.9-3.9c-20.4-22-31.2-47.9-31.3-78.1c0-7.3,3.5-12.4,10-15.6c1.1-0.5,2.3-1,3.5-1.6c-0.6-1.3-1-2.2-1.4-3.1
		C15.3,143.9,16.4,109,34.5,74.6c7.3-14,19.6-15.3,29.8-3.3c38.6,44.9,86.8,74.2,144.4,87.9c8.9,2.1,18,3.4,26.4,5
		c1.7-11.5,2.2-22.4,4.9-32.6c11.2-41.9,39.3-67.8,79.7-80.9C327.4,48.1,335.4,47.1,343.3,45.4z M84.1,419.8
		c0.7,0.3,1.4,0.6,2.1,0.8c47.9,15.3,96.4,16.8,145.4,6c119.4-26.3,206.2-135.2,204.1-257.2c-0.2-13.1,2.5-22.3,13.4-30.1
		c9.8-7,16.5-17.3,21.8-27.3c-11,0-22,0.5-32.8-0.1c-9.6-0.5-19-2.3-26.3-9.7c-19.2-19.2-42.3-27.2-69.4-23.7
		c-42.5,5.5-84.1,44.7-71.6,99.2c2.5,11.1-5,20.6-16.3,20.1c-9.6-0.4-19.1-1.5-28.6-2.8c-50.4-7.2-96.1-26.1-136.8-56.7
		c-11.7-8.8-22.5-18.7-33.8-28.1c-0.3,0.8-0.8,1.8-1,2.9c-2.2,12.8-2.2,25.4,1.5,38c5.5,19,16.8,33.8,33,45.1
		c7.4,5.1,9.8,11.9,7.3,19.2c-2.5,7.4-8.3,11.3-17.3,10.9c-7.5-0.4-14.9-1.5-23.6-2.4c3.9,7.4,6.9,14.5,11.2,20.9
		c12.5,18.8,30.4,30.1,52.3,35.1c6.5,1.5,10.8,5.2,12.4,11.8c2.4,10-3,17.9-14.3,20.4c-6,1.3-12.1,2-19.6,3.3
		c5.7,5.6,10.3,10.8,15.6,15.1c14.9,12.3,32.4,18.1,51.6,19c7.6,0.4,12.5,4.5,14.7,11.7c2.1,6.8-0.4,13.1-6.9,18
		C145.9,399.1,116.5,412.1,84.1,419.8z"/>
</g>
</svg>
